<svg xmlns="http://www.w3.org/2000/svg" viewBox="0 0 372 332.2" xmlns:v="https://vecta.io/nano"><path d="M69.9 226.5H46.5C18.4 226.4 0 208 0 179.9V44.6c0-21.3 12.5-37.7 32.5-43C36.6.5 41 .1 45.3.1L252.5 0c27.1 0 45.8 18.7 45.8 45.8v134.8c0 26.6-18.9 45.6-45.5 45.7-33.8.1-67.5.2-101.3-.1-4.9 0-7.8 1.7-11 5.1-9.6 10.1-18.8 20.8-29.5 29.6-13.4 11-29.4 18-45.7 23.9-3.4 1.2-7.6 1.6-11.2 1.1-5.8-.7-7.2-4.1-3.6-8.6 8.6-11 13.3-23.7 16.8-36.9 1.2-4.4 1.7-8.9 2.6-13.9zM57.6 115.7c0 11.6 9.5 20.9 20.9 20.8 11.3-.1 21-9.9 20.9-21.2-.1-11.6-9.5-20.8-21.1-20.8-11.6.2-20.8 9.5-20.7 21.2zm93.1 18.2c11.7 0 20.8-9.1 20.8-20.8 0-11.5-9.4-20.9-20.9-20.9-11.3 0-21 9.7-21 21 .1 11.4 9.5 20.7 21.1 20.7zm92.8-23c0-11.7-9.1-20.8-20.9-20.8-11.5 0-21 9.5-21 20.9 0 11.2 9.3 20.4 20.7 20.5 11.6.3 21.1-9.1 21.2-20.6zm81.8-37.7c24.9-4 46.6 15.1 46.7 41.2v129.8c-.3 24.3-17.6 41.6-41.9 42h-7.6c.8 6.4.7 12.5 2.5 18 2.3 7.2 5.9 14.1 9.1 21 2 4.2 1.3 6.7-3.2 6.9-5.4.3-11.2.5-16.2-1.3-21.5-7.5-38.6-20.6-48.1-42-1.4-3.1-3.4-2.6-5.6-2.6H156.7c-9.2 0-17-2.5-21.7-11.4l21-22.7c1.2-1.2 3.9-1.5 5.9-1.5l121.3-.1c25.1 0 42.2-17.1 42.2-42.3l-.1-135z"/></svg>