<svg xmlns="http://www.w3.org/2000/svg" viewBox="0 0 228 62" xmlns:v="https://vecta.io/nano"><path d="M0 0h228v62H0z" fill="#fff"/><path d="M21.6 20.5L14.7 43h3.9l1.9-6.5h7.9l1.9 6.5h3.9l-6.9-22.5h-5.7zm-.2 12.8l3-10.2 3 10.2h-6zm26.4.2c4.8-1.4 5.6-8.8 2-11.5-2.8-2.3-9.1-1.9-13-1.2V43h3.9v-8.7c1 .1 1.9.1 3 0l5.9 8.7h4.3l-6.5-9.3a.76.76 0 0 1 .4-.2zm-7.1-2.3c-.3 0 .7.1 0 0v-7.9c9.4-2.5 11.7 9.6 0 7.9zm27.1 8.6h-.1c-.5 0-1 .1-1.5.1-1.6 0-2.9-.3-4-.8s-1.9-1.4-2.5-2.6-.8-2.8-.8-4.9.3-3.8.9-5 1.4-2.1 2.6-2.6c1.1-.5 2.6-.8 4.3-.8l2.2.1 2.3.4v-3.2c-.7-.2-1.5-.3-2.3-.4s-1.6-.1-2.5-.1c-2.5 0-4.5.4-6.3 1.2-1.7.8-3 2-3.9 3.7s-1.4 3.9-1.4 6.6.5 4.9 1.4 6.6 2.2 2.9 4 3.7 4 1.2 6.6 1.2l2.4-.1 2.6-.3V31.9H68v7.9zm11.6-6.6h8.7v-3.3h-8.7v-6.1h10.3v-3.2H75.4v22.5h14.5v-3.2H79.4zm27.4 3.5L97 20.5h-4.1v22.4h3.8V26.7l9.8 16.2h4.1V20.5h-3.8zm6-12.2h6.8v18.4h4.1V24.5h6.9v-4h-17.8z" fill="#59ad71"/><path d="M146.6 31.3c.8-.2 1.5-.5 2.1-.9.7-.5 1.2-1.1 1.5-1.8s.5-1.5.5-2.3c0-1.4-.3-2.5-1-3.4s-1.7-1.6-3.1-2-3.1-.6-5.3-.6l-2.3.1c-.8 0-1.5.1-2.2.2l-2 .3v22c.6.1 1.2.1 1.9.2s1.4.1 2 .1h1.9c1.9 0 3.5-.1 4.9-.4 1.3-.3 2.5-.7 3.3-1.2.9-.5 1.5-1.2 1.9-2s.6-1.7.6-2.8c0-1.6-.5-2.9-1.4-3.8-.8-.9-1.9-1.4-3.3-1.7zm-6.4-8.1c.5 0 1-.1 1.6-.1 1.8 0 3.1.3 3.8.8s1.1 1.4 1.1 2.6c0 .7-.2 1.4-.5 1.9s-.8.9-1.5 1.1c-.7.3-1.7.4-3 .4h-3.1v-6.6c.6 0 1.1-.1 1.6-.1zm6.6 15.5c-.4.5-1 .9-1.9 1.2s-2 .4-3.4.4h-1.4c-.5 0-1-.1-1.5-.1V33h3.6c1.8 0 3.1.3 3.9.9s1.2 1.5 1.2 2.8c.1.8-.1 1.4-.5 2zm12-18.3l-7 22.5h4l1.9-6.5h8.1l2 6.5h4l-7-22.5h-6zm-.2 12.8l3.1-10.2 3.1 10.2h-6.2zm29.2 3.5L178 20.4h-4.1v22.5h3.8V26.7l9.8 16.2h4.1V20.4h-3.8zm21.3 6.2h4.4l-8.3-11.6 7.7-10.9h-4.3l-6.5 9.3h-2.4v-9.3h-4v22.5h4v-9.8h2.3z" fill="#244b30"/></svg>