<svg xmlns="http://www.w3.org/2000/svg" viewBox="0 0 338.5 388.1" xmlns:v="https://vecta.io/nano"><path d="M310.6 69.4L169.7 26.9 28.8 69.4C3.6 258 78.4 341.4 169.7 361.2c91.3-19.8 166-103.1 140.9-291.8zm-39.3 67.9L150 258.6c-3.7 3.7-9.7 3.7-13.3 0l-8-8 .1-.1L75 196.9a10.32 10.32 0 0 1 0-14.7h0a10.32 10.32 0 0 1 14.7 0l53.6 53.6 113.2-113.2a10.32 10.32 0 0 1 14.7 0h0a10.41 10.41 0 0 1 .1 14.7zm61.4-87.9L169.2 0 5.7 49.4C-23.5 268.3 63.3 365 169.2 388.1c105.9-23 192.7-119.7 163.5-338.7zm-163 327.4C70.3 355.2-11.1 264.4 16.3 58.9l153.5-46.4 153.5 46.4c27.3 205.5-54.2 296.3-153.6 317.9z"/></svg>