<svg xmlns="http://www.w3.org/2000/svg" viewBox="0 0 402.4 238.6" xmlns:v="https://vecta.io/nano"><path d="M43.2 0v14.9h344.3v179.7h14.9V0zM17.4 25.5v14.9h344.3v179.7h14.9V25.5zM0 50.3v188.3h351.7V50.3H0zm336.8 173.1H14.9V64.9h321.9v158.5zM98.9 144.1c0-31.1 18.7-57.8 45.5-69.6H24.2V214h120.9c-27.2-11.5-46.2-38.4-46.2-69.9zm106.4-69.5c26.8 11.8 45.5 38.5 45.5 69.6 0 31.4-19.1 58.4-46.2 69.9h122.8V74.6H205.3zm-37.4 126.5v-13c-9.2-.4-18.1-3-23.3-5.9l4.1-16c5.8 3.2 13.8 6 22.8 6 8 0 13.3-3.2 13.3-8.5 0-5.2-4.4-8.5-14.7-11.9-14.7-4.9-24.7-11.8-24.7-25.1 0-12.2 8.5-21.7 23.2-24.4v-13H182v12.1c9 .3 15.2 2.3 20 4.5l-4.1 15.5c-3.4-1.6-9.9-4.8-19.7-4.8-8.9 0-11.8 4-11.8 7.8 0 4.4 4.8 7.4 16.6 11.7 16.3 5.8 22.8 13.3 22.8 25.8 0 12.2-8.5 22.6-24.3 25.2v14.1h-13.6z"/></svg>